<mxfile host="Electron" modified="2023-07-20T17:22:00.358Z" agent="Mozilla/5.0 (Windows NT 10.0; Win64; x64) AppleWebKit/537.36 (KHTML, like Gecko) draw.io/21.6.1 Chrome/112.0.5615.204 Electron/24.6.1 Safari/537.36" etag="NQoGET_u_wzqNMmAbj9e" version="21.6.1" type="device">
  <diagram name="Страница 1" id="9AdSGZ-wU5dIfNWMVngr">
    <mxGraphModel dx="952" dy="636" grid="1" gridSize="10" guides="1" tooltips="1" connect="1" arrows="1" fold="1" page="1" pageScale="1" pageWidth="827" pageHeight="1169" math="0" shadow="0">
      <root>
        <mxCell id="0" />
        <mxCell id="1" parent="0" />
        <mxCell id="fwMDCeDDaVyuJN_M8xQI-238" value="" style="edgeStyle=orthogonalEdgeStyle;rounded=0;orthogonalLoop=1;jettySize=auto;html=1;" parent="1" source="y0_Ly3QX1UwcSKQh8jFW-9" target="fwMDCeDDaVyuJN_M8xQI-43" edge="1">
          <mxGeometry relative="1" as="geometry" />
        </mxCell>
        <mxCell id="fwMDCeDDaVyuJN_M8xQI-2" value="start" style="ellipse;whiteSpace=wrap;html=1;labelBackgroundColor=none;" parent="1" vertex="1">
          <mxGeometry x="266" y="23" width="120" height="80" as="geometry" />
        </mxCell>
        <mxCell id="y0_Ly3QX1UwcSKQh8jFW-43" value="" style="edgeStyle=orthogonalEdgeStyle;rounded=0;orthogonalLoop=1;jettySize=auto;html=1;" edge="1" parent="1" source="fwMDCeDDaVyuJN_M8xQI-43" target="y0_Ly3QX1UwcSKQh8jFW-42">
          <mxGeometry relative="1" as="geometry" />
        </mxCell>
        <mxCell id="fwMDCeDDaVyuJN_M8xQI-43" value="N = N array" style="shape=parallelogram;perimeter=parallelogramPerimeter;whiteSpace=wrap;html=1;fixedSize=1;labelBackgroundColor=none;" parent="1" vertex="1">
          <mxGeometry x="266" y="183" width="120" height="40" as="geometry" />
        </mxCell>
        <mxCell id="fwMDCeDDaVyuJN_M8xQI-224" value="" style="edgeStyle=orthogonalEdgeStyle;rounded=0;orthogonalLoop=1;jettySize=auto;html=1;" parent="1" source="fwMDCeDDaVyuJN_M8xQI-222" target="fwMDCeDDaVyuJN_M8xQI-223" edge="1">
          <mxGeometry relative="1" as="geometry" />
        </mxCell>
        <mxCell id="fwMDCeDDaVyuJN_M8xQI-222" value="i = 0" style="rounded=0;whiteSpace=wrap;html=1;" parent="1" vertex="1">
          <mxGeometry x="266" y="400" width="120" height="27" as="geometry" />
        </mxCell>
        <mxCell id="fwMDCeDDaVyuJN_M8xQI-229" value="" style="edgeStyle=orthogonalEdgeStyle;rounded=0;orthogonalLoop=1;jettySize=auto;html=1;" parent="1" source="y0_Ly3QX1UwcSKQh8jFW-50" target="fwMDCeDDaVyuJN_M8xQI-228" edge="1">
          <mxGeometry relative="1" as="geometry" />
        </mxCell>
        <mxCell id="fwMDCeDDaVyuJN_M8xQI-223" value="i &amp;lt; N" style="rhombus;whiteSpace=wrap;html=1;rounded=0;" parent="1" vertex="1">
          <mxGeometry x="253" y="470" width="146" height="80" as="geometry" />
        </mxCell>
        <mxCell id="fwMDCeDDaVyuJN_M8xQI-227" value="конец цикла" style="text;html=1;strokeColor=none;fillColor=none;align=center;verticalAlign=middle;whiteSpace=wrap;rounded=0;" parent="1" vertex="1">
          <mxGeometry x="400" y="470" width="60" height="30" as="geometry" />
        </mxCell>
        <mxCell id="fwMDCeDDaVyuJN_M8xQI-234" value="" style="edgeStyle=orthogonalEdgeStyle;rounded=0;orthogonalLoop=1;jettySize=auto;html=1;" parent="1" source="fwMDCeDDaVyuJN_M8xQI-228" edge="1">
          <mxGeometry relative="1" as="geometry">
            <mxPoint x="326" y="700" as="targetPoint" />
          </mxGeometry>
        </mxCell>
        <mxCell id="fwMDCeDDaVyuJN_M8xQI-228" value="array[i] =random.nextInt(A+1)" style="whiteSpace=wrap;html=1;rounded=0;" parent="1" vertex="1">
          <mxGeometry x="223" y="660" width="206" height="30" as="geometry" />
        </mxCell>
        <mxCell id="fwMDCeDDaVyuJN_M8xQI-236" value="выполнение цикла" style="text;html=1;strokeColor=none;fillColor=none;align=center;verticalAlign=middle;whiteSpace=wrap;rounded=0;" parent="1" vertex="1">
          <mxGeometry x="360" y="540" width="60" height="30" as="geometry" />
        </mxCell>
        <mxCell id="y0_Ly3QX1UwcSKQh8jFW-10" value="" style="edgeStyle=orthogonalEdgeStyle;rounded=0;orthogonalLoop=1;jettySize=auto;html=1;" edge="1" parent="1" source="fwMDCeDDaVyuJN_M8xQI-2" target="y0_Ly3QX1UwcSKQh8jFW-9">
          <mxGeometry relative="1" as="geometry">
            <mxPoint x="326" y="103" as="sourcePoint" />
            <mxPoint x="326" y="183" as="targetPoint" />
          </mxGeometry>
        </mxCell>
        <mxCell id="y0_Ly3QX1UwcSKQh8jFW-9" value="int N" style="whiteSpace=wrap;html=1;labelBackgroundColor=none;" vertex="1" parent="1">
          <mxGeometry x="266" y="133" width="120" height="23" as="geometry" />
        </mxCell>
        <mxCell id="y0_Ly3QX1UwcSKQh8jFW-25" style="edgeStyle=orthogonalEdgeStyle;rounded=0;orthogonalLoop=1;jettySize=auto;html=1;entryX=0;entryY=0.5;entryDx=0;entryDy=0;" edge="1" parent="1" source="y0_Ly3QX1UwcSKQh8jFW-17" target="fwMDCeDDaVyuJN_M8xQI-223">
          <mxGeometry relative="1" as="geometry">
            <Array as="points">
              <mxPoint x="160" y="730" />
              <mxPoint x="160" y="510" />
            </Array>
          </mxGeometry>
        </mxCell>
        <mxCell id="y0_Ly3QX1UwcSKQh8jFW-17" value="i++" style="whiteSpace=wrap;html=1;rounded=0;" vertex="1" parent="1">
          <mxGeometry x="266" y="700" width="120" height="60" as="geometry" />
        </mxCell>
        <mxCell id="y0_Ly3QX1UwcSKQh8jFW-18" value="end" style="ellipse;whiteSpace=wrap;html=1;rounded=0;" vertex="1" parent="1">
          <mxGeometry x="590" y="930" width="80" height="80" as="geometry" />
        </mxCell>
        <mxCell id="y0_Ly3QX1UwcSKQh8jFW-47" value="" style="edgeStyle=orthogonalEdgeStyle;rounded=0;orthogonalLoop=1;jettySize=auto;html=1;" edge="1" parent="1" source="y0_Ly3QX1UwcSKQh8jFW-42" target="y0_Ly3QX1UwcSKQh8jFW-46">
          <mxGeometry relative="1" as="geometry" />
        </mxCell>
        <mxCell id="y0_Ly3QX1UwcSKQh8jFW-42" value="int A" style="whiteSpace=wrap;html=1;labelBackgroundColor=none;" vertex="1" parent="1">
          <mxGeometry x="266" y="240" width="120" height="40" as="geometry" />
        </mxCell>
        <mxCell id="y0_Ly3QX1UwcSKQh8jFW-48" value="" style="edgeStyle=orthogonalEdgeStyle;rounded=0;orthogonalLoop=1;jettySize=auto;html=1;" edge="1" parent="1" source="y0_Ly3QX1UwcSKQh8jFW-46" target="fwMDCeDDaVyuJN_M8xQI-222">
          <mxGeometry relative="1" as="geometry" />
        </mxCell>
        <mxCell id="y0_Ly3QX1UwcSKQh8jFW-46" value="A = A maxNum" style="shape=parallelogram;perimeter=parallelogramPerimeter;whiteSpace=wrap;html=1;fixedSize=1;" vertex="1" parent="1">
          <mxGeometry x="266" y="300" width="120" height="40" as="geometry" />
        </mxCell>
        <mxCell id="y0_Ly3QX1UwcSKQh8jFW-51" value="" style="edgeStyle=orthogonalEdgeStyle;rounded=0;orthogonalLoop=1;jettySize=auto;html=1;" edge="1" parent="1" source="y0_Ly3QX1UwcSKQh8jFW-52" target="y0_Ly3QX1UwcSKQh8jFW-50">
          <mxGeometry relative="1" as="geometry">
            <mxPoint x="326" y="550" as="sourcePoint" />
            <mxPoint x="326" y="660" as="targetPoint" />
          </mxGeometry>
        </mxCell>
        <mxCell id="y0_Ly3QX1UwcSKQh8jFW-50" value="Random random = new Random()" style="rounded=0;whiteSpace=wrap;html=1;" vertex="1" parent="1">
          <mxGeometry x="250" y="615" width="150" height="25" as="geometry" />
        </mxCell>
        <mxCell id="y0_Ly3QX1UwcSKQh8jFW-53" value="" style="edgeStyle=orthogonalEdgeStyle;rounded=0;orthogonalLoop=1;jettySize=auto;html=1;" edge="1" parent="1" source="fwMDCeDDaVyuJN_M8xQI-223" target="y0_Ly3QX1UwcSKQh8jFW-52">
          <mxGeometry relative="1" as="geometry">
            <mxPoint x="326" y="550" as="sourcePoint" />
            <mxPoint x="326" y="615" as="targetPoint" />
          </mxGeometry>
        </mxCell>
        <mxCell id="y0_Ly3QX1UwcSKQh8jFW-52" value="int[] array = new int[N]" style="rounded=0;whiteSpace=wrap;html=1;" vertex="1" parent="1">
          <mxGeometry x="255" y="575" width="144" height="25" as="geometry" />
        </mxCell>
        <mxCell id="y0_Ly3QX1UwcSKQh8jFW-56" value="" style="edgeStyle=orthogonalEdgeStyle;rounded=0;orthogonalLoop=1;jettySize=auto;html=1;" edge="1" parent="1" source="fwMDCeDDaVyuJN_M8xQI-223" target="y0_Ly3QX1UwcSKQh8jFW-55">
          <mxGeometry relative="1" as="geometry">
            <mxPoint x="514" y="1078" as="targetPoint" />
            <mxPoint x="399" y="510" as="sourcePoint" />
            <Array as="points">
              <mxPoint x="630" y="510" />
            </Array>
          </mxGeometry>
        </mxCell>
        <mxCell id="y0_Ly3QX1UwcSKQh8jFW-58" value="" style="edgeStyle=orthogonalEdgeStyle;rounded=0;orthogonalLoop=1;jettySize=auto;html=1;" edge="1" parent="1" source="y0_Ly3QX1UwcSKQh8jFW-55" target="y0_Ly3QX1UwcSKQh8jFW-57">
          <mxGeometry relative="1" as="geometry" />
        </mxCell>
        <mxCell id="y0_Ly3QX1UwcSKQh8jFW-55" value="return array" style="rounded=0;whiteSpace=wrap;html=1;" vertex="1" parent="1">
          <mxGeometry x="570" y="540" width="120" height="20" as="geometry" />
        </mxCell>
        <mxCell id="y0_Ly3QX1UwcSKQh8jFW-62" value="" style="edgeStyle=orthogonalEdgeStyle;rounded=0;orthogonalLoop=1;jettySize=auto;html=1;" edge="1" parent="1" source="y0_Ly3QX1UwcSKQh8jFW-57" target="y0_Ly3QX1UwcSKQh8jFW-59">
          <mxGeometry relative="1" as="geometry" />
        </mxCell>
        <mxCell id="y0_Ly3QX1UwcSKQh8jFW-57" value="print array" style="shape=document;whiteSpace=wrap;html=1;boundedLbl=1;" vertex="1" parent="1">
          <mxGeometry x="570" y="587.5" width="120" height="42.5" as="geometry" />
        </mxCell>
        <mxCell id="y0_Ly3QX1UwcSKQh8jFW-61" value="" style="edgeStyle=orthogonalEdgeStyle;rounded=0;orthogonalLoop=1;jettySize=auto;html=1;" edge="1" parent="1" source="y0_Ly3QX1UwcSKQh8jFW-59" target="y0_Ly3QX1UwcSKQh8jFW-60">
          <mxGeometry relative="1" as="geometry" />
        </mxCell>
        <mxCell id="y0_Ly3QX1UwcSKQh8jFW-59" value="int sumPositive = num" style="rounded=0;whiteSpace=wrap;html=1;" vertex="1" parent="1">
          <mxGeometry x="555" y="653" width="150" height="40" as="geometry" />
        </mxCell>
        <mxCell id="y0_Ly3QX1UwcSKQh8jFW-64" value="" style="edgeStyle=orthogonalEdgeStyle;rounded=0;orthogonalLoop=1;jettySize=auto;html=1;" edge="1" parent="1" source="y0_Ly3QX1UwcSKQh8jFW-60" target="y0_Ly3QX1UwcSKQh8jFW-63">
          <mxGeometry relative="1" as="geometry" />
        </mxCell>
        <mxCell id="y0_Ly3QX1UwcSKQh8jFW-60" value="int sumNegative = num" style="whiteSpace=wrap;html=1;rounded=0;" vertex="1" parent="1">
          <mxGeometry x="555" y="713" width="150" height="40" as="geometry" />
        </mxCell>
        <mxCell id="y0_Ly3QX1UwcSKQh8jFW-65" value="" style="edgeStyle=orthogonalEdgeStyle;rounded=0;orthogonalLoop=1;jettySize=auto;html=1;" edge="1" parent="1" source="y0_Ly3QX1UwcSKQh8jFW-63" target="y0_Ly3QX1UwcSKQh8jFW-18">
          <mxGeometry relative="1" as="geometry" />
        </mxCell>
        <mxCell id="y0_Ly3QX1UwcSKQh8jFW-63" value="print sumNegative&lt;br&gt;print sumPositive" style="shape=document;whiteSpace=wrap;html=1;boundedLbl=1;" vertex="1" parent="1">
          <mxGeometry x="555" y="810" width="150" height="80" as="geometry" />
        </mxCell>
        <mxCell id="y0_Ly3QX1UwcSKQh8jFW-66" value="1.метод" style="text;html=1;strokeColor=none;fillColor=none;align=center;verticalAlign=middle;whiteSpace=wrap;rounded=0;" vertex="1" parent="1">
          <mxGeometry x="60" y="575" width="60" height="30" as="geometry" />
        </mxCell>
        <mxCell id="y0_Ly3QX1UwcSKQh8jFW-67" value="2.метод" style="text;html=1;strokeColor=none;fillColor=none;align=center;verticalAlign=middle;whiteSpace=wrap;rounded=0;" vertex="1" parent="1">
          <mxGeometry x="706" y="587.5" width="60" height="30" as="geometry" />
        </mxCell>
        <mxCell id="y0_Ly3QX1UwcSKQh8jFW-68" value="4.метод" style="text;html=1;strokeColor=none;fillColor=none;align=center;verticalAlign=middle;whiteSpace=wrap;rounded=0;" vertex="1" parent="1">
          <mxGeometry x="710" y="718" width="60" height="30" as="geometry" />
        </mxCell>
        <mxCell id="y0_Ly3QX1UwcSKQh8jFW-69" value="3.метод" style="text;html=1;strokeColor=none;fillColor=none;align=center;verticalAlign=middle;whiteSpace=wrap;rounded=0;" vertex="1" parent="1">
          <mxGeometry x="710" y="658" width="60" height="30" as="geometry" />
        </mxCell>
      </root>
    </mxGraphModel>
  </diagram>
</mxfile>
